<svg width="220" height="41" viewBox="0 0 220 41" fill="none" xmlns="http://www.w3.org/2000/svg">
<path d="M28.8377 39V36.6H34.0777C36.211 36.6 38.091 36.1467 39.7177 35.24C41.3443 34.3067 42.611 33 43.5177 31.32C44.4243 29.64 44.8777 27.6533 44.8777 25.36C44.8777 23.04 44.4243 21.04 43.5177 19.36C42.611 17.68 41.3443 16.3867 39.7177 15.48C38.091 14.5467 36.211 14.08 34.0777 14.08H28.8377V11.72H34.4377C37.451 11.72 40.0643 12.2533 42.2777 13.32C44.5177 14.3867 46.251 15.9333 47.4777 17.96C48.731 19.9867 49.3577 22.4533 49.3577 25.36C49.3577 28.24 48.731 30.7067 47.4777 32.76C46.251 34.7867 44.5177 36.3333 42.2777 37.4C40.0643 38.4667 37.451 39 34.4377 39H28.8377ZM20.7577 39V36.92H24.5977V13.8H20.8377V11.72H28.8377V39H20.7577ZM52.3955 39V36.92H56.5555V13.8H52.4755V11.72H64.8755V13.8H60.7955V36.92H64.9555V39H52.3955ZM84.8308 39L74.2708 17.56V11.72H76.0308L87.4308 35.12H86.5108L97.7108 11.72H98.1908V17.12L87.7108 39H84.8308ZM67.7108 39V36.92H71.5508V13.8H67.7908V11.72H74.2708V36.92H78.4308V39H67.7108ZM94.0308 39V36.92H98.1908V11.72H106.071V13.8H102.311V36.92H106.151V39H94.0308ZM108.958 39V36.92H113.118V13.8H109.038V11.72H121.438V13.8H117.358V36.92H121.518V39H108.958ZM131.287 39V36.92H136.207V11.72H140.447V36.92H145.367V39H131.287ZM124.607 20.96V14.08H130.167C128.994 14.08 128.181 14.3333 127.727 14.84C127.274 15.3467 127.047 16.2133 127.047 17.44V20.96H124.607ZM124.607 14.08V11.72H152.087V14.08H124.607ZM149.607 17.44C149.607 16.2133 149.381 15.3467 148.927 14.84C148.474 14.3333 147.661 14.08 146.487 14.08H152.087V20.96H149.607V17.44ZM155.289 39V36.92H159.129V13.76H155.369V11.68H163.369V36.92H167.569V39H155.289ZM177.529 39.36C176.222 39.36 175.156 39.1333 174.329 38.68C173.529 38.2 172.916 37.5333 172.489 36.68C172.089 35.8 171.849 34.7733 171.769 33.6L171.609 31.68C171.476 29.9733 171.009 28.72 170.209 27.92C169.436 27.12 168.302 26.72 166.809 26.72H163.369V26.08H169.489C171.756 26.0533 173.356 26.6 174.289 27.72C175.222 28.8133 175.729 30.44 175.809 32.6L175.929 34.04C175.982 34.76 176.156 35.3733 176.449 35.88C176.769 36.3867 177.329 36.64 178.129 36.64C178.929 36.64 179.489 36.4 179.809 35.92C180.156 35.4133 180.329 34.7867 180.329 34.04V28.56H182.929V33.68C182.929 35.3867 182.502 36.76 181.649 37.8C180.822 38.84 179.449 39.36 177.529 39.36ZM163.369 26.72V24.36H171.609C173.582 24.36 175.129 23.9333 176.249 23.08C177.396 22.2267 177.969 20.9333 177.969 19.2C177.969 17.4667 177.396 16.1733 176.249 15.32C175.129 14.4667 173.582 14.04 171.609 14.04H163.369V11.68H172.889C175.689 11.68 177.942 12.2933 179.649 13.52C181.356 14.72 182.209 16.5333 182.209 18.96C182.209 21.3867 181.356 23.2133 179.649 24.44C177.942 25.64 175.716 26.24 172.969 26.24H170.049L169.489 26.72H163.369ZM185.833 39V36.92H189.993V13.8H185.913V11.72H198.313V13.8H194.233V36.92H198.393V39H185.833Z" fill="white"/>
<path d="M206.245 17L204.005 11.1616H204.58L206.078 15.1416C206.171 15.3815 206.254 15.6125 206.325 15.8345C206.4 16.0529 206.463 16.2516 206.513 16.4307H206.54C206.597 16.2516 206.662 16.0511 206.733 15.8291C206.809 15.6071 206.891 15.3779 206.98 15.1416L208.479 11.1616H209.059L206.814 17H206.245ZM212.728 17H212.196V11.0703C212.196 10.859 212.196 10.6746 212.196 10.5171C212.196 10.356 212.198 10.2127 212.201 10.0874C212.205 9.9585 212.21 9.83675 212.217 9.72217C212.121 9.81885 212.027 9.90299 211.938 9.97461C211.848 10.0462 211.734 10.1375 211.594 10.2485L210.434 11.1294L210.133 10.7427L212.271 9.14746H212.728V17Z" fill="white"/>
</svg>
